<svg xmlns="http://www.w3.org/2000/svg" width="16" height="16"><path d="M6.52 16.79Q6.77 14.08 5.32 12.08 4.32 10.08 4.32 7.02 2.43 3.08 5.95 5.47 7.22 4.5 8.87 4.53 10.06.41 11.2 4.52 14 8 13.77 9.22 19.02 10.88 20 16" fill="#1f1f1f"/><circle r="2" cx="5.81" cy="8.63" fill="#1f1f1f"/><circle r="2" cx="10.91" cy="6.71" fill="#1f1f1f"/><circle r="1.75" fill="#fff" cx="5.81" cy="8.63"/><circle r="1.75" fill="#fff" cx="10.91" cy="6.71"/><circle r=".619" cx="5.47" cy="8.42" fill="#1f1f1f"/><circle r=".613" cx="11.08" cy="6.41" fill="#1f1f1f"/><path d="M8.27 9.73Q8.21 10.96 9.128 9.802 10.319 10.244 9.97 9.15" stroke-linejoin="round" stroke-width=".2" stroke-opacity="1" opacity=".98" fill-opacity="1" stroke="#fff" fill="none" stroke-linecap="round"/><path d="M4.716 11.723Q4.91 11.548 5.141 11.485" fill="none" stroke="#1f1f1f" stroke-width=".2" stroke-linecap="round" stroke-linejoin="round"/><path d="M13.35 7.843Q13.632 7.813 13.759 7.684" fill="none" stroke="#1f1f1f" stroke-width=".2" stroke-linecap="round" stroke-linejoin="round"/><path d="M13.478 8.148Q13.743 8.051 13.894 8.104" fill="none" stroke="#1f1f1f" stroke-width=".2" stroke-linecap="round" stroke-linejoin="round"/><path d="M4.582 11.353Q4.853 11.352 5.023 11.251" fill="none" stroke="#1f1f1f" stroke-width=".2" stroke-linecap="round" stroke-linejoin="round"/></svg>